<?xml version="1.0" encoding="UTF-8"?>
<svg version="1.1" xmlns="http://www.w3.org/2000/svg" width="225" height="225">
<path d="M0 0 C74.25 0 148.5 0 225 0 C225 74.25 225 148.5 225 225 C150.75 225 76.5 225 0 225 C0 150.75 0 76.5 0 0 Z " fill="#EFDE20" transform="translate(0,0)"/>
<path d="M0 0 C0.7425 0.639375 1.485 1.27875 2.25 1.9375 C5.7303312 4.5477484 8.10996426 4.45130805 12.34765625 4.75 C26.38280449 6.07290057 40.83188818 14.64960347 51 24 C51.77859375 24.69867188 52.5571875 25.39734375 53.359375 26.1171875 C64.68700263 36.79860818 72.65257567 51.78977364 76 67 C76 67.99 76 68.98 76 70 C75.01 70.495 75.01 70.495 74 71 C74.99 71.5878125 74.99 71.5878125 76 72.1875 C78 74 78 74 78.4375 76.5 C77.93915901 79.34766278 77.22984785 80.23470379 75 82 C75.66 82.33 76.32 82.66 77 83 C76.85946128 85.62538284 76.71281053 88.25017427 76.5625 90.875 C76.52318359 91.62136719 76.48386719 92.36773437 76.44335938 93.13671875 C76.11328125 98.7734375 76.11328125 98.7734375 75 101 C74.34 101 73.68 101 73 101 C72.67 102.32 72.34 103.64 72 105 C72.99 105.33 73.98 105.66 75 106 C77.34168764 109.51253146 77.49623677 110.86469356 77 115 C75.37185715 118.11470807 74.10391275 119.63329576 70.73046875 120.75390625 C68.49161434 121.25808921 66.27123686 121.6748443 64 122 C64 122.66 64 123.32 64 124 C64.66 124.33 65.32 124.66 66 125 C52.43751188 144.92700768 35.48140808 157.10270693 12.125 162.875 C-1.92827374 165.53972911 -17.8634049 165.19026604 -31 159 C-31.33 158.34 -31.66 157.68 -32 157 C-32.94875 157.20625 -33.8975 157.4125 -34.875 157.625 C-35.90625 157.74875 -36.9375 157.8725 -38 158 C-40.1385485 155.8614515 -40.42655063 154.86724686 -41 152 C-41.99 152.33 -42.98 152.66 -44 153 C-49.92414402 149.5335504 -55.39037523 145.08648251 -60 140 C-59.67 139.01 -59.34 138.02 -59 137 C-59.66 137.33 -60.32 137.66 -61 138 C-66.21653972 138.44396083 -66.21653972 138.44396083 -68.875 136.9375 C-70.60291334 133.96164925 -70.24465864 131.36405631 -70 128 C-69.505 127.01 -69.505 127.01 -69 126 C-69.99 126 -70.98 126 -72 126 C-82.27517845 104.63325907 -87.64546304 82.26239296 -79.96484375 58.84375 C-72.3281156 37.82433104 -59.10114609 21.31352408 -39 11 C-30.49745886 7.08492685 -22.29086395 5.01880177 -13 4 C-12.01 5.485 -12.01 5.485 -11 7 C-10.54625 6.030625 -10.0925 5.06125 -9.625 4.0625 C-7.18176095 -0.54206591 -5.01337176 -0.49150704 0 0 Z " fill="#EBDB1F" transform="translate(115,31)"/>
<path d="M0 0 C2.31954564 3.09272752 3.71720383 5.30240897 5.1875 8.75 C5.53167969 9.54921875 5.87585938 10.3484375 6.23046875 11.171875 C6.48441406 11.77515625 6.73835938 12.3784375 7 13 C10.04049801 9.35140239 11.96518762 5.2555467 14 1 C14.33 1 14.66 1 15 1 C15.495 8.425 15.495 8.425 16 16 C21.445 11.545 21.445 11.545 27 7 C27.66 7.33 28.32 7.66 29 8 C26.69 12.62 24.38 17.24 22 22 C24.0625 21.319375 26.125 20.63875 28.25 19.9375 C35.39285714 17.58035714 35.39285714 17.58035714 39 19 C37.71802734 19.93972656 37.71802734 19.93972656 36.41015625 20.8984375 C35.29411389 21.72374614 34.17823702 22.54927862 33.0625 23.375 C32.49853516 23.7875 31.93457031 24.2 31.35351562 24.625 C28.19151048 26.8769369 28.19151048 26.8769369 26 30 C26.98742187 30.12117188 27.97484375 30.24234375 28.9921875 30.3671875 C30.27351563 30.53476563 31.55484375 30.70234375 32.875 30.875 C34.78925781 31.11863281 34.78925781 31.11863281 36.7421875 31.3671875 C40 32 40 32 42 34 C41.08476562 34.20496094 40.16953125 34.40992188 39.2265625 34.62109375 C38.03804688 34.89050781 36.84953125 35.15992188 35.625 35.4375 C34.44164062 35.70433594 33.25828125 35.97117188 32.0390625 36.24609375 C29.10505419 36.85634695 29.10505419 36.85634695 27 38 C30.96 41.3 34.92 44.6 39 48 C35.76630321 49.6168484 32.69371743 48.00851816 29.375 47.0625 C28.66859375 46.86720703 27.9621875 46.67191406 27.234375 46.47070312 C25.48780156 45.98685508 23.74365876 45.49424877 22 45 C22.433125 45.84304687 22.86625 46.68609375 23.3125 47.5546875 C23.869375 48.65039062 24.42625 49.74609375 25 50.875 C25.556875 51.96554688 26.11375 53.05609375 26.6875 54.1796875 C28 57 28 57 28 59 C23.08479557 56.76786588 19.20904827 53.34247951 15 50 C15 55.28 15 60.56 15 66 C12.68045436 62.90727248 11.28279617 60.69759103 9.8125 57.25 C9.46832031 56.45078125 9.12414062 55.6515625 8.76953125 54.828125 C8.38861328 53.92320312 8.38861328 53.92320312 8 53 C4.67006966 56.82941989 2.94675475 61.37522222 1 66 C0.67 66 0.34 66 0 66 C0 60.72 0 55.44 0 50 C-1.5675 51.27875 -3.135 52.5575 -4.75 53.875 C-7.72876006 56.30504111 -10.47761953 58.43632643 -14 60 C-12.50111257 55.00370856 -10.38829052 50.61736167 -8 46 C-15.425 46.99 -15.425 46.99 -23 48 C-18 43 -18 43 -12 38 C-17.28 36.68 -22.56 35.36 -28 34 C-27.67 33.34 -27.34 32.68 -27 32 C-24.29400158 31.52402634 -21.66404596 31.15906371 -18.9375 30.875 C-18.17888672 30.78863281 -17.42027344 30.70226562 -16.63867188 30.61328125 C-14.76003014 30.40060483 -12.88011364 30.19924541 -11 30 C-13.95497935 26.96221912 -16.88720207 24.18390358 -20.3125 21.6875 C-21.35857422 20.91986328 -21.35857422 20.91986328 -22.42578125 20.13671875 C-22.94527344 19.76160156 -23.46476562 19.38648437 -24 19 C-20.1280483 17.70934943 -17.55767399 18.77675902 -13.8125 19.9375 C-13.15830078 20.13279297 -12.50410156 20.32808594 -11.83007812 20.52929688 C-10.21772593 21.01182563 -8.60853711 21.50490205 -7 22 C-7.51691406 21.01257813 -8.03382812 20.02515625 -8.56640625 19.0078125 C-9.23218866 17.71375655 -9.89753054 16.41947388 -10.5625 15.125 C-11.07586914 14.14853516 -11.07586914 14.14853516 -11.59960938 13.15234375 C-12.46082891 11.46470143 -13.23686703 9.73420407 -14 8 C-13.67 7.34 -13.34 6.68 -13 6 C-9.04 9.3 -5.08 12.6 -1 16 C-0.67 10.72 -0.34 5.44 0 0 Z " fill="#0C0B01" transform="translate(105,81)"/>
<path d="M0 0 C4.21360859 2.65640541 7.12095614 5.6814342 9.875 9.8125 C10.0703125 12.29296875 10.0703125 12.29296875 10 15 C9.98195312 15.90105469 9.96390625 16.80210938 9.9453125 17.73046875 C9.92210937 18.41753906 9.89890625 19.10460937 9.875 19.8125 C8.885 19.8125 7.895 19.8125 6.875 19.8125 C6.76542969 19.12542969 6.65585938 18.43835938 6.54296875 17.73046875 C6.38441406 16.82941406 6.22585937 15.92835937 6.0625 15 C5.91167969 14.10667969 5.76085937 13.21335937 5.60546875 12.29296875 C4.82104607 9.62928744 3.98872201 8.55559678 1.875 6.8125 C2.205 7.4725 2.535 8.1325 2.875 8.8125 C3.38593875 12.87081354 3.79178528 17.00826657 1.8984375 20.734375 C-0.34444856 23.51390251 -2.6855427 25.80089491 -6.125 26.8125 C-12.46875 27.140625 -12.46875 27.140625 -15.125 25.8125 C-16.115 26.8025 -17.105 27.7925 -18.125 28.8125 C-22.72444172 23.32284376 -23.48585936 19.5729325 -23.40234375 12.5390625 C-23.00807023 8.66296511 -21.75589377 6.65109591 -19.125 3.8125 C-12.98463242 -0.82410409 -7.49973512 -2.84989934 0 0 Z " fill="#EBDA1F" transform="translate(119.125,98.1875)"/>
<path d="M0 0 C14.52 0 29.04 0 44 0 C44 14.19 44 28.38 44 43 C43.67 43 43.34 43 43 43 C42.85304687 42.24976563 42.70609375 41.49953125 42.5546875 40.7265625 C39.89053641 28.56945925 33.80210509 17.60967681 23.51171875 10.2109375 C16.01445083 5.59198336 8.62535599 2.66248358 0 1 C0 0.67 0 0.34 0 0 Z " fill="#FEFEFC" transform="translate(181,0)"/>
<path d="M0 0 C13.86 0 27.72 0 42 0 C39.72961299 2.27038701 38.68151412 2.45057346 35.625 3.1875 C23.29191165 6.78242618 13.84082853 14.02564591 7.18359375 24.9921875 C4.06769575 30.89362323 2.09584024 36.42495856 1 43 C0.67 43 0.34 43 0 43 C0 28.81 0 14.62 0 0 Z " fill="#FEFEFC" transform="translate(0,0)"/>
<path d="M0 0 C3.69236565 1.34267842 6.39681442 3.28006882 8.9375 6.3125 C10.33023883 9.83530998 10.46228841 12.2356515 10 16 C7.56489342 20.77655522 4.77655522 23.56489342 0 26 C-4.33823043 26.6197472 -6.37930088 26.3342226 -10.25 24.25 C-13.38946495 21.68134686 -15.62942849 19.71497046 -16.50390625 15.66796875 C-16.61935456 10.78065684 -16.35170014 7.75589332 -13.125 3.9375 C-9.17556445 -0.11687224 -5.59525654 -0.72718136 0 0 Z " fill="#DECF1C" transform="translate(160,65)"/>
<path d="M0 0 C0.33 0 0.66 0 1 0 C1 14.85 1 29.7 1 45 C-13.19 45 -27.38 45 -42 45 C-42 44.67 -42 44.34 -42 44 C-41.26136719 43.85304687 -40.52273437 43.70609375 -39.76171875 43.5546875 C-25.84638421 40.47810782 -15.50295675 34.1233465 -7.1484375 22.40234375 C-2.93824308 15.36115653 -1.3369601 8.03348832 0 0 Z " fill="#FEFEFB" transform="translate(224,180)"/>
<path d="M0 0 C1.65694229 3.31388458 2.70232483 6.17227411 3.75 9.6875 C5.68858307 15.55313923 8.14256985 20.187225 12 25 C12.55171875 25.68835938 13.1034375 26.37671875 13.671875 27.0859375 C20.84751979 35.0895413 31.49267087 40.10868076 42 42 C42 42.33 42 42.66 42 43 C28.14 43 14.28 43 0 43 C0 28.81 0 14.62 0 0 Z " fill="#FEFEFB" transform="translate(0,182)"/>
<path d="M0 0 C0 0.99 0 1.98 0 3 C-1.13695313 3.27972656 -2.27390625 3.55945312 -3.4453125 3.84765625 C-24.94453607 9.34000496 -43.22521313 19.51383518 -55.21777344 38.93115234 C-65.48309565 56.39773891 -69.03309886 76.92465955 -64.9375 96.875 C-63.34874755 102.73400903 -60.87039987 108.24656317 -58.24975586 113.71044922 C-55.89830249 118.69490746 -55.89830249 118.69490746 -57 122 C-57.66 122 -58.32 122 -59 122 C-69.27517845 100.63325907 -74.64546304 78.26239296 -66.96484375 54.84375 C-59.33859175 33.85316571 -46.10406973 17.27024112 -26 7 C-17.76221778 3.33312037 -9.12931215 0 0 0 Z " fill="#0C0B01" transform="translate(102,35)"/>
<path d="M0 0 C3.57907038 1.19302346 4.1428794 1.77022504 6 5 C6.59225419 7.34845237 7.06247343 9.68734539 7.47265625 12.07421875 C7.64667969 12.70972656 7.82070312 13.34523438 8 14 C8.66 14.33 9.32 14.66 10 15 C8.74784899 20.84337138 5.78100896 23.73102506 1 27 C-2.28850039 28.0961668 -4.14370471 27.85222841 -7.5625 27.5625 C-14.09570212 27.45955257 -17.16462549 29.7031017 -21.84375 34.0546875 C-23.84085791 35.85642616 -25.54807443 36.94121396 -28 38 C-26.50111257 33.00370856 -24.38829052 28.61736167 -22 24 C-26.95 24.66 -31.9 25.32 -37 26 C-32 21 -32 21 -26 16 C-31.28 14.68 -36.56 13.36 -42 12 C-41.67 11.34 -41.34 10.68 -41 10 C-38.453125 9.3671875 -38.453125 9.3671875 -35.25 8.875 C-34.20328125 8.70742187 -33.1565625 8.53984375 -32.078125 8.3671875 C-29.33364106 8.03979982 -26.75838936 7.85116604 -24 8 C-22.39507663 9.60492337 -22.53284952 11.60807267 -22.1875 13.8125 C-21.39863281 18.02179899 -20.58013889 20.37456482 -17 23 C-16.34 22.01 -15.68 21.02 -15 20 C-14.34 20.33 -13.68 20.66 -13 21 C-7.30058046 21.54802111 -4.43467357 20.60961802 0 17 C2.15164703 13.77252945 2.27245079 12.79494361 2.25 9.0625 C2.25515625 8.20785156 2.2603125 7.35320312 2.265625 6.47265625 C1.98713633 3.88025433 1.30669172 2.23485766 0 0 Z " fill="#121102" transform="translate(119,103)"/>
<path d="M0 0 C0.99 0.66 1.98 1.32 3 2 C-10.56248812 21.92700768 -27.51859192 34.10270693 -50.875 39.875 C-65.31318471 42.61271448 -80.38126488 41.80057236 -94 36 C-93.67 35.01 -93.34 34.02 -93 33 C-92.18402344 33.2165625 -91.36804688 33.433125 -90.52734375 33.65625 C-67.74184617 39.01170971 -45.26049398 37.05019405 -25 25 C-15.22854835 18.35824519 -6.95181296 9.52096123 0 0 Z " fill="#151301" transform="translate(178,154)"/>
<path d="M0 0 C3.02508145 1.73602105 5.41790069 3.83580137 7 7 C7.2262475 12.0069555 6.69507747 15.16929766 3.4375 19.0625 C-1.03699068 21.58448566 -2.93088294 21.72415958 -8 21 C-11.39890142 18.93110348 -13.88937011 16.88720463 -15 13 C-14.80743088 7.70434916 -13.69046589 4.80229819 -10 1 C-6.77140153 -0.61429923 -3.49006347 -0.59570657 0 0 Z " fill="#D9CA1C" transform="translate(125,161)"/>
<path d="M0 0 C0.99 0.33 1.98 0.66 3 1 C2.80664062 1.56847656 2.61328125 2.13695313 2.4140625 2.72265625 C2.15367188 3.49480469 1.89328125 4.26695313 1.625 5.0625 C1.36976562 5.81660156 1.11453125 6.57070312 0.8515625 7.34765625 C0.57054687 8.22292969 0.28953125 9.09820312 0 10 C-0.35449219 11.06089844 -0.70898438 12.12179688 -1.07421875 13.21484375 C-4.59904283 27.62646627 -2.23462877 42.4459654 4.83203125 55.34375 C13.71756506 69.50452184 25.9882877 76.9078848 42 81 C43.66347706 81.3489025 45.32919428 81.68807509 47 82 C47 82.99 47 83.98 47 85 C33.94844613 84.94672835 22.57729675 79.70494607 13 71 C12.31421875 70.40574219 11.6284375 69.81148438 10.921875 69.19921875 C5.20892371 63.93327319 1.45008835 57.9263799 -2 51 C-2.65548828 49.69869141 -2.65548828 49.69869141 -3.32421875 48.37109375 C-8.6700099 35.48492351 -7.75211007 18.29843828 -3.0703125 5.328125 C-2 3 -2 3 0 0 Z " fill="#0D0C01" transform="translate(60,87)"/>
<path d="M0 0 C16.86393963 1.35999513 32.54483542 8.54647453 45 20 C45.77859375 20.69867188 46.5571875 21.39734375 47.359375 22.1171875 C58.68700263 32.79860818 66.65257567 47.78977364 70 63 C70 63.99 70 64.98 70 66 C68.02 65.505 68.02 65.505 66 65 C65.8040625 64.16339844 65.608125 63.32679687 65.40625 62.46484375 C61.71156209 48.08422657 55.57634851 36.55701332 45 26 C44.44957031 25.37867187 43.89914063 24.75734375 43.33203125 24.1171875 C32.53296346 12.22488075 15.51170882 5.769948 0 3 C0 2.01 0 1.02 0 0 Z " fill="#100F01" transform="translate(121,35)"/>
<path d="M0 0 C0.66 0 1.32 0 2 0 C2.4803318 1.58298026 2.95921612 3.16639978 3.4375 4.75 C3.70433594 5.63171875 3.97117188 6.5134375 4.24609375 7.421875 C4.49488281 8.27265625 4.74367187 9.1234375 5 10 C5.19078125 10.62777344 5.3815625 11.25554687 5.578125 11.90234375 C8.5909742 26.88289951 4.06916547 43.34963091 -4 56 C-10.15483584 64.14515182 -18.52316502 73.00209193 -29 75 C-29.33 74.01 -29.66 73.02 -30 72 C-29.23816406 71.59910156 -28.47632813 71.19820313 -27.69140625 70.78515625 C-12.85897527 62.61898639 -5.53092404 52.31707505 0.20703125 36.71875 C1.28697874 31.65416867 1.29002437 26.78814336 1.25 21.625 C1.25773437 20.635 1.26546875 19.645 1.2734375 18.625 C1.25709832 12.43245096 0.44470324 7.01143467 -1 1 C-0.67 0.67 -0.34 0.34 0 0 Z " fill="#141201" transform="translate(164,92)"/>
<path d="M0 0 C4.13288558 1.35258074 5.90208828 2.59078972 8.4375 6.125 C9.0625 9.625 9.0625 9.625 8.4375 13.125 C5.90208828 16.65921028 4.13288558 17.89741926 0 19.25 C-3.74167662 19.1187131 -5.72174828 18.48346123 -8.44921875 15.8515625 C-10.26350757 13.03782335 -10.38102682 10.57800096 -10.14453125 7.2890625 C-9.49249232 4.86470299 -8.79798319 3.73498108 -7 2 C-3.5625 0.125 -3.5625 0.125 0 0 Z " fill="#080702" transform="translate(69.5625,65.875)"/>
<path d="M0 0 C4.10198969 1.34246935 5.88827306 2.64878144 8.4375 6.125 C9.1821324 10.09637281 8.81016878 11.56599683 6.5625 14.9375 C3.82036658 17.7602844 3.02392602 18.07070129 -0.9375 18.4375 C-4.5625 18.125 -4.5625 18.125 -6.9375 16.25 C-9.8334923 12.46293314 -10.12935059 9.90274071 -9.5625 5.125 C-6.45637371 1.48855946 -4.82394721 0.16926131 0 0 Z " fill="#080701" transform="translate(183.5625,133.875)"/>
<path d="M0 0 C3.57907038 1.19302346 4.1428794 1.77022504 6 5 C6.59225419 7.34845237 7.06247343 9.68734539 7.47265625 12.07421875 C7.64667969 12.70972656 7.82070312 13.34523438 8 14 C8.66 14.33 9.32 14.66 10 15 C8.74784899 20.84337138 5.78100896 23.73102506 1 27 C-4.35872991 28.7862433 -10.00330642 28.95841292 -15.125 26.5 C-15.74375 26.005 -16.3625 25.51 -17 25 C-16.67 23.35 -16.34 21.7 -16 20 C-15.01 20.33 -14.02 20.66 -13 21 C-7.29375217 21.53832527 -4.4444534 20.61757835 0 17 C2.15164703 13.77252945 2.27245079 12.79494361 2.25 9.0625 C2.25515625 8.20785156 2.2603125 7.35320312 2.265625 6.47265625 C1.98713633 3.88025433 1.30669172 2.23485766 0 0 Z " fill="#EBDA1E" transform="translate(119,103)"/>
<path d="M0 0 C3.69236565 1.34267842 6.39681442 3.28006882 8.9375 6.3125 C10.33023883 9.83530998 10.46228841 12.2356515 10 16 C7.56489342 20.77655522 4.77655522 23.56489342 0 26 C-4.33823043 26.6197472 -6.37930088 26.3342226 -10.25 24.25 C-13.38946495 21.68134686 -15.62942849 19.71497046 -16.50390625 15.66796875 C-16.61935456 10.78065684 -16.35170014 7.75589332 -13.125 3.9375 C-9.17556445 -0.11687224 -5.59525654 -0.72718136 0 0 Z M-12 7 C-13.53214888 10.06429776 -13.22938548 12.6165642 -13 16 C-11.74360091 18.82689795 -10.67448232 20.47004961 -8.25 22.375 C-4.81167782 23.33008949 -2.43602312 22.90421661 1 22 C3.86262257 19.99007352 5.64014872 18.56251212 6.4453125 15.06640625 C6.66317186 11.22481957 6.2331958 9.36534009 4.125 6.0625 C1.39102013 3.4089313 0.52615669 3.04963742 -3.3125 2.6875 C-7.57536111 3.04875942 -9.01992054 4.01992054 -12 7 Z " fill="#0D0C01" transform="translate(160,65)"/>
<path d="M0 0 C0.99 0 1.98 0 3 0 C4.00484204 1.95585325 5.00373805 3.91476237 6 5.875 C6.556875 6.96554688 7.11375 8.05609375 7.6875 9.1796875 C9 12 9 12 9 14 C4.08479557 11.76786588 0.20904827 8.34247951 -4 5 C-4 10.28 -4 15.56 -4 21 C-6.31954564 17.90727248 -7.71720383 15.69759103 -9.1875 12.25 C-9.53167969 11.45078125 -9.87585938 10.6515625 -10.23046875 9.828125 C-10.48441406 9.22484375 -10.73835938 8.6215625 -11 8 C-14.32993034 11.82941989 -16.05324525 16.37522222 -18 21 C-18.33 21 -18.66 21 -19 21 C-19 15.39 -19 9.78 -19 4 C-17.14375 4.061875 -15.2875 4.12375 -13.375 4.1875 C-8.47311637 4.1990747 -5.1636688 3.81328973 -1 1 C-0.67 0.67 -0.34 0.34 0 0 Z " fill="#060601" transform="translate(124,126)"/>
<path d="M0 0 C-0.33 0.99 -0.66 1.98 -1 3 C-1.99 2.59007813 -2.98 2.18015625 -4 1.7578125 C-20.89539013 -5.17769374 -35.11558264 -7.72007519 -53 -1 C-56.42197067 0.5232732 -59.73530123 2.16454723 -63 4 C-63.66 3.01 -64.32 2.02 -65 1 C-43.96177409 -10.22386742 -21.22905175 -14.15270117 0 0 Z " fill="#0C0B01" transform="translate(143,65)"/>
<path d="M0 0 C3.02508145 1.73602105 5.41790069 3.83580137 7 7 C7.2262475 12.0069555 6.69507747 15.16929766 3.4375 19.0625 C-1.03699068 21.58448566 -2.93088294 21.72415958 -8 21 C-11.39890142 18.93110348 -13.88937011 16.88720463 -15 13 C-14.80743088 7.70434916 -13.69046589 4.80229819 -10 1 C-6.77140153 -0.61429923 -3.49006347 -0.59570657 0 0 Z M-9.375 4.5625 C-11.62340519 7.93510779 -11.56783945 10.02512383 -11 14 C-9.52006844 16.56338689 -9.52006844 16.56338689 -7 18 C-4.04308291 18.75015195 -4.04308291 18.75015195 -1 18 C2.08333333 16.08333333 2.08333333 16.08333333 4 13 C4.06641554 9.14789873 3.87229157 7.00151995 1.3125 4.0625 C-2.70878369 2.21488317 -5.63874458 2.10443723 -9.375 4.5625 Z " fill="#0E0D01" transform="translate(125,161)"/>
<path d="M0 0 C2.4375 1.5625 2.4375 1.5625 4 4 C3.9375 7.625 3.9375 7.625 3 11 C-0.46923881 13.31282587 -1.92205575 13.42478586 -6 13 C-7.875 11.9375 -7.875 11.9375 -9 10 C-9.63316583 4.09045226 -9.63316583 4.09045226 -7.875 1.0625 C-5.06487736 -0.52990283 -3.17235276 -0.45319325 0 0 Z " fill="#080801" transform="translate(54,156)"/>
<path d="M0 0 C1.875 1.0625 1.875 1.0625 3 3 C3.4375 6.5 3.4375 6.5 3 10 C0.93174529 12.37466282 -0.43428235 12.88685647 -3.5 13.5 C-6 13 -6 13 -8.375 10.875 C-10 8 -10 8 -9.9375 4.8125 C-8.22154026 -0.33537922 -4.89798488 -0.51020676 0 0 Z " fill="#090802" transform="translate(115,31)"/>
<path d="M0 0 C3.56841333 1.18947111 4.20743736 1.74079519 6 5 C7.11919563 9.45982502 7.36380954 12.92878301 5.875 17.3125 C3.68718357 20.44837022 2.39089616 22.16326458 -1 24 C-4.7197566 24.48542278 -8.29612941 24.63642358 -12 24 C-13.8359375 22.47265625 -13.8359375 22.47265625 -15 21 C-14.41992188 21.04640625 -13.83984375 21.0928125 -13.2421875 21.140625 C-7.58769173 21.40188883 -4.47108042 20.81677597 0 17 C2.15164703 13.77252945 2.27245079 12.79494361 2.25 9.0625 C2.25515625 8.20785156 2.2603125 7.35320312 2.265625 6.47265625 C1.98713633 3.88025433 1.30669172 2.23485766 0 0 Z " fill="#191702" transform="translate(119,103)"/>
<path d="M0 0 C1.8125 1.125 1.8125 1.125 3 3 C3.4375 6 3.4375 6 3 9 C1.3125 10.9375 1.3125 10.9375 -1 12 C-4.37036311 11.75925978 -5.58798021 11.41201979 -8 9 C-8.333728 5.86295684 -8.52849028 3.83445834 -6.8125 1.125 C-4.34492892 -0.40659584 -2.85480169 -0.42822025 0 0 Z " fill="#080801" transform="translate(159,72)"/>
<path d="M0 0 C1.010625 0.0825 2.02125 0.165 3.0625 0.25 C5.0625 3.25 5.0625 3.25 4.6875 5.9375 C4.48125 6.700625 4.275 7.46375 4.0625 8.25 C1.1875 8.875 1.1875 8.875 -1.9375 9.25 C-3.9375 7.25 -3.9375 7.25 -4.125 4.1875 C-3.87878357 0.33010924 -3.87878357 0.33010924 0 0 Z " fill="#090901" transform="translate(120.9375,166.75)"/>
<path d="M0 0 C5.33333333 4 10.66666667 8 16 12 C15.01 13.485 15.01 13.485 14 15 C2.29384966 6.738041 2.29384966 6.738041 -2 2 C-1.34 1.34 -0.68 0.68 0 0 Z " fill="#0E0D01" transform="translate(57,169)"/>
<path d="M0 0 C0.99 0 1.98 0 3 0 C2.85941524 2.45873768 2.71277001 4.91685175 2.5625 7.375 C2.50352539 8.42300781 2.50352539 8.42300781 2.44335938 9.4921875 C2.11328125 14.7734375 2.11328125 14.7734375 1 17 C0.01 17 -0.98 17 -2 17 C-1.34 11.39 -0.68 5.78 0 0 Z " fill="#0B0A00" transform="translate(189,115)"/>
<path d="M0 0 C0.53109375 0.49113281 1.0621875 0.98226562 1.609375 1.48828125 C4.68015462 3.43009777 6.64921396 3.30491694 10.25 3.1875 C11.32765625 3.16042969 12.4053125 3.13335937 13.515625 3.10546875 C14.33546875 3.07066406 15.1553125 3.03585938 16 3 C15.67 3.99 15.34 4.98 15 6 C12.69 6 10.38 6 8 6 C8 6.66 8 7.32 8 8 C4.26512223 7.5020163 2.18762365 7.12508244 -1 5 C-0.67 3.35 -0.34 1.7 0 0 Z " fill="#D1C21A" transform="translate(103,123)"/>
<path d="M0 0 C1.2065625 0.0309375 1.2065625 0.0309375 2.4375 0.0625 C3.0625 2.4375 3.0625 2.4375 3.4375 5.0625 C2.7775 5.7225 2.1175 6.3825 1.4375 7.0625 C-0.6875 6.6875 -0.6875 6.6875 -2.5625 6.0625 C-2.94468767 4.40635343 -3.27645102 2.73792976 -3.5625 1.0625 C-2.5625 0.0625 -2.5625 0.0625 0 0 Z " fill="#090901" transform="translate(78.5625,181.9375)"/>
<path d="M0 0 C1.67542976 0.28604898 3.34385343 0.61781233 5 1 C5 2.65 5 4.3 5 6 C2.625 6.625 2.625 6.625 0 7 C-0.66 6.34 -1.32 5.68 -2 5 C-1.46428571 1.46428571 -1.46428571 1.46428571 0 0 Z " fill="#0A0901" transform="translate(188,104)"/>
<path d="M0 0 C1.32 0.33 2.64 0.66 4 1 C3.34 2.98 2.68 4.96 2 7 C0.02 7.33 -1.96 7.66 -4 8 C-2.68 5.36 -1.36 2.72 0 0 Z " fill="#DCCD1C" transform="translate(125,117)"/>
<path d="M0 0 C3.65316671 1.24976756 4.78065836 1.67098753 7 5 C1.46153846 5.36923077 1.46153846 5.36923077 -0.875 3.5 C-1.24625 3.005 -1.6175 2.51 -2 2 C-1.34 2 -0.68 2 0 2 C0 1.34 0 0.68 0 0 Z " fill="#CEC019" transform="translate(117,174)"/>
<path d="M0 0 C0.99 0 1.98 0 3 0 C3 2.31 3 4.62 3 7 C2.01 7 1.02 7 0 7 C0 4.69 0 2.38 0 0 Z " fill="#F4E320" transform="translate(126,111)"/>
<path d="M0 0 C0.66 0 1.32 0 2 0 C2 1.65 2 3.3 2 5 C0.33333333 5 -1.33333333 5 -3 5 C-1.125 1.125 -1.125 1.125 0 0 Z " fill="#D4C61B" transform="translate(151,69)"/>
<path d="M0 0 C1.32 0 2.64 0 4 0 C4 1.65 4 3.3 4 5 C3.01 5.33 2.02 5.66 1 6 C0.67 4.02 0.34 2.04 0 0 Z " fill="#EDDD1F" transform="translate(162,74)"/>
</svg>
